<?xml version="1.0" encoding="UTF-8"?><svg id="a" xmlns="http://www.w3.org/2000/svg" xmlns:xlink="http://www.w3.org/1999/xlink" viewBox="0 0 1006.24 1051.05"><defs><style>.f{fill:url(#c);}.g{fill:url(#b);}.h{fill:#324680;}.i{fill:#231f20;}.j{fill:#243668;}.k{fill:#191547;}.l{fill:#050606;opacity:.21;}.m{stroke:#324680;}.m,.n,.o{fill:none;stroke-miterlimit:10;}.n{stroke:url(#e);}.n,.o{stroke-width:4px;}.o{stroke:url(#d);}</style><linearGradient id="b" x1="340.06" y1="403.31" x2="999.12" y2="403.31" gradientTransform="matrix(1, 0, 0, 1, 0, 0)" gradientUnits="userSpaceOnUse"><stop offset="0" stop-color="#a94874"/><stop offset="1" stop-color="#384d95"/></linearGradient><linearGradient id="c" x1="0" y1="733.5" x2="931.45" y2="733.5" gradientTransform="matrix(1, 0, 0, 1, 0, 0)" gradientUnits="userSpaceOnUse"><stop offset="0" stop-color="#ef486c"/><stop offset="1" stop-color="#4e64ae"/></linearGradient><linearGradient id="d" x1="114.58" y1="463.22" x2="342.8" y2="463.22" gradientTransform="translate(534.97 -323.37) rotate(33.18) scale(1 1.2) skewX(28.76)" gradientUnits="userSpaceOnUse"><stop offset="0" stop-color="#ef486c"/><stop offset="1" stop-color="#4e5daa"/></linearGradient><linearGradient id="e" x1="115.54" y1="429.72" x2="341.83" y2="429.72" xlink:href="#d"/></defs><path class="j" d="M435.33,3.78L985.78,348.78c14.62,9.3,22.45,26.3,20.03,43.46l-55.3,391.39c-2.25,15.89-20.06,28.74-33.61,20.15L356.14,443.82c-14.67-9.3-12.7-14.76-10.26-31.96L395.97,17.79c2.26-15.9,25.82-22.63,39.37-14.01Z"/><path class="g" d="M429.95,3.53L978.66,352.71c14.62,9.3,22.45,26.3,20.03,43.46l-55.3,391.39c-2.25,15.89-20.15,24.16-33.7,15.57L360.59,455.14c-14.67-9.3-22.53-26.33-20.09-43.53L396.22,19.07c2.26-15.9,20.18-24.15,33.73-15.53Z"/><path class="h" d="M570.43,1044.14c14.47,9.21,32.97,9.21,47.44,0l303.42-199.54c6.21-4.09,9.95-11.02,9.95-18.46v-17.22c0-7.74-4.05-14.92-10.68-18.92L335.96,437.54,10.23,650.36c-13.64,8.68-10.65,30.5,2.99,39.18"/><path class="f" d="M570.43,1038.62c14.47,9.21,32.97,9.21,47.44,0l304.14-212.41c12.92-9.02,12.51-28.29-.79-36.75L348.4,424.92c-7.53-4.79-17.21-4.58-24.52,.53L10.23,644.84c-13.64,8.68-13.64,28.59,0,37.27"/><path class="m" d="M282.93,671.99l-116.87,74.37c-7.3,4.65-7.3,15.3,0,19.95l197.55,125.72c7.74,4.93,17.64,4.93,25.38,0l116.87-74.37c7.3-4.65,7.3-15.3,0-19.95l-197.55-125.72c-7.74-4.93-17.64-4.93-25.38,0Z"/><path class="i" d="M346.75,504.58l22.06,13.58c1.15,.71,3.04,.71,4.19,0l16.89-10.4c1.52-.94,1.52-2.47,0-3.41l-22.06-13.58c-1.29-.79-2.91-.79-4.19,0l-16.89,10.4c-1.27,.78-1.27,2.63,0,3.41Z"/><path class="i" d="M402.74,538.93l-23.85-14.69c-1.52-.94-1.52-2.47,0-3.41l16.67-10.27c1.15-.71,3.04-.71,4.19,0l23.85,14.69c1.52,.94,1.52,2.47,0,3.41l-16.67,10.27c-1.15,.71-3.04,.71-4.19,0Z"/><path class="i" d="M436.57,559.76l-23.85-14.69c-1.52-.94-1.52-2.47,0-3.41l16.67-10.27c1.15-.71,3.04-.71,4.19,0l23.85,14.69c1.52,.94,1.52,2.47,0,3.41l-16.67,10.27c-1.15,.71-3.04,.71-4.19,0Z"/><path class="i" d="M504.23,601.42l-23.85-14.69c-1.52-.94-1.52-2.47,0-3.41l16.67-10.27c1.15-.71,3.04-.71,4.19,0l23.85,14.69c1.52,.94,1.52,2.47,0,3.41l-16.67,10.27c-1.15,.71-3.04,.71-4.19,0Z"/><path class="i" d="M471.19,581.09l-25.46-15.67c-1.52-.94-1.52-2.47,0-3.41l16.71-10.29c1.15-.71,3.04-.71,4.19,0l25.46,15.67c1.52,.94,1.52,2.47,0,3.41l-16.71,10.29c-1.15,.71-3.04,.71-4.19,0Z"/><path class="i" d="M538.06,622.25l-23.85-14.69c-1.52-.94-1.52-2.47,0-3.41l16.67-10.27c1.15-.71,3.04-.71,4.19,0l23.85,14.69c1.52,.94,1.52,2.47,0,3.41l-16.67,10.27c-1.15,.71-3.04,.71-4.19,0Z"/><path class="i" d="M571.89,643.08l-23.85-14.69c-1.52-.94-1.52-2.47,0-3.41l16.67-10.27c1.15-.71,3.04-.71,4.19,0l23.85,14.69c1.52,.94,1.52,2.47,0,3.41l-16.67,10.27c-1.15,.71-3.04,.71-4.19,0Z"/><path class="i" d="M605.72,663.91l-23.85-14.69c-1.52-.94-1.52-2.47,0-3.41l16.67-10.27c1.15-.71,3.04-.71,4.19,0l23.85,14.69c1.52,.94,1.52,2.47,0,3.41l-16.67,10.27c-1.15,.71-3.04,.71-4.19,0Z"/><path class="i" d="M639.55,684.74l-23.85-14.69c-1.52-.94-1.52-2.47,0-3.41l16.67-10.27c1.15-.71,3.04-.71,4.19,0l23.85,14.69c1.52,.94,1.52,2.47,0,3.41l-16.67,10.27c-1.15,.71-3.04,.71-4.19,0Z"/><path class="i" d="M673.38,705.57l-23.85-14.69c-1.52-.94-1.52-2.47,0-3.41l16.67-10.27c1.15-.71,3.04-.71,4.19,0l23.85,14.69c1.52,.94,1.52,2.47,0,3.41l-16.67,10.27c-1.15,.71-3.04,.71-4.19,0Z"/><path class="i" d="M707.21,726.41l-23.85-14.69c-1.52-.94-1.52-2.47,0-3.41l16.67-10.27c1.15-.71,3.04-.71,4.19,0l23.85,14.69c1.52,.94,1.52,2.47,0,3.41l-16.67,10.27c-1.15,.71-3.04,.71-4.19,0Z"/><path class="i" d="M741.04,747.24l-23.85-14.69c-1.52-.94-1.52-2.47,0-3.41l16.67-10.27c1.15-.71,3.04-.71,4.19,0l23.85,14.69c1.52,.94,1.52,2.47,0,3.41l-16.67,10.27c-1.15,.71-3.04,.71-4.19,0Z"/><path class="i" d="M774.87,768.07l-23.85-14.69c-1.52-.94-1.52-2.47,0-3.41l16.67-10.27c1.15-.71,3.04-.71,4.19,0l23.85,14.69c1.52,.94,1.52,2.47,0,3.41l-16.67,10.27c-1.15,.71-3.04,.71-4.19,0Z"/><path class="i" d="M800.72,783.98l-16.67-10.27c-1.52-.94-1.52-2.47,0-3.41l16.67-10.27c1.15-.71,3.04-.71,4.19,0l16.67,10.27c1.52,.94,1.52,2.47,0,3.41l-16.67,10.27c-1.15,.71-3.04,.71-4.19,0Z"/><path class="i" d="M317.15,522.98l18.47,11.37c1.15,.71,3.04,.71,4.19,0l20.26-12.48c1.52-.94,1.52-2.47,0-3.41l-18.47-11.37c-1.29-.79-2.91-.79-4.19,0l-20.26,12.48c-1.27,.78-1.27,2.63,0,3.41Z"/><path class="i" d="M495.03,632.51l-20.26-12.48c-1.52-.94-1.52-2.47,0-3.41l20.26-12.48c1.15-.71,3.04-.71,4.19,0l20.26,12.48c1.52,.94,1.52,2.47,0,3.41l-20.26,12.48c-1.15,.71-3.04,.71-4.19,0Z"/><path class="i" d="M654.44,730.67l-20.26-12.48c-1.52-.94-1.52-2.47,0-3.41l20.26-12.48c1.15-.71,3.04-.71,4.19,0l20.26,12.48c1.52,.94,1.52,2.47,0,3.41l-20.26,12.48c-1.15,.71-3.04,.71-4.19,0Z"/><path class="i" d="M686.32,750.3l-20.26-12.48c-1.52-.94-1.52-2.47,0-3.41l20.26-12.48c1.15-.71,3.04-.71,4.19,0l20.26,12.48c1.52,.94,1.52,2.47,0,3.41l-20.26,12.48c-1.15,.71-3.04,.71-4.19,0Z"/><path class="i" d="M590.67,691.41l-20.26-12.48c-1.52-.94-1.52-2.47,0-3.41l20.26-12.48c1.15-.71,3.04-.71,4.19,0l20.26,12.48c1.52,.94,1.52,2.47,0,3.41l-20.26,12.48c-1.15,.71-3.04,.71-4.19,0Z"/><path class="i" d="M622.55,711.04l-20.26-12.48c-1.52-.94-1.52-2.47,0-3.41l20.26-12.48c1.15-.71,3.04-.71,4.19,0l20.26,12.48c1.52,.94,1.52,2.47,0,3.41l-20.26,12.48c-1.15,.71-3.04,.71-4.19,0Z"/><path class="i" d="M558.79,671.77l-20.26-12.48c-1.52-.94-1.52-2.47,0-3.41l20.26-12.48c1.15-.71,3.04-.71,4.19,0l20.26,12.48c1.52,.94,1.52,2.47,0,3.41l-20.26,12.48c-1.15,.71-3.04,.71-4.19,0Z"/><path class="i" d="M526.91,652.14l-20.26-12.48c-1.52-.94-1.52-2.47,0-3.41l20.26-12.48c1.15-.71,3.04-.71,4.19,0l20.26,12.48c1.52,.94,1.52,2.47,0,3.41l-20.26,12.48c-1.15,.71-3.04,.71-4.19,0Z"/><path class="i" d="M463.14,612.88l-20.26-12.48c-1.52-.94-1.52-2.47,0-3.41l20.26-12.48c1.15-.71,3.04-.71,4.19,0l20.26,12.48c1.52,.94,1.52,2.47,0,3.41l-20.26,12.48c-1.15,.71-3.04,.71-4.19,0Z"/><path class="i" d="M431.26,593.25l-20.26-12.48c-1.52-.94-1.52-2.47,0-3.41l20.26-12.48c1.15-.71,3.04-.71,4.19,0l20.26,12.48c1.52,.94,1.52,2.47,0,3.41l-20.26,12.48c-1.15,.71-3.04,.71-4.19,0Z"/><path class="i" d="M399.38,573.62l-20.26-12.48c-1.52-.94-1.52-2.47,0-3.41l20.26-12.48c1.15-.71,3.04-.71,4.19,0l20.26,12.48c1.52,.94,1.52,2.47,0,3.41l-20.26,12.48c-1.15,.71-3.04,.71-4.19,0Z"/><path class="i" d="M367.5,553.99l-20.26-12.48c-1.52-.94-1.52-2.47,0-3.41l20.26-12.48c1.15-.71,3.04-.71,4.19,0l20.26,12.48c1.52,.94,1.52,2.47,0,3.41l-20.26,12.48c-1.15,.71-3.04,.71-4.19,0Z"/><path class="i" d="M718.2,769.93l-20.26-12.48c-1.52-.94-1.52-2.47,0-3.41l20.26-12.48c1.15-.71,3.04-.71,4.19,0l20.26,12.48c1.52,.94,1.52,2.47,0,3.41l-20.26,12.48c-1.15,.71-3.04,.71-4.19,0Z"/><path class="i" d="M771.62,802.82l-41.8-25.74c-1.52-.94-1.52-2.47,0-3.41l20.26-12.48c1.15-.71,3.04-.71,4.19,0l41.8,25.74c1.52,.94,1.52,2.47,0,3.41l-20.26,12.48c-1.15,.71-3.04,.71-4.19,0Z"/><path class="i" d="M257.3,559.66l40.01,24.63c1.15,.71,3.04,.71,4.19,0l20.26-12.48c1.52-.94,1.52-2.47,0-3.41l-40.01-24.63c-1.29-.79-2.91-.79-4.19,0l-20.26,12.48c-1.27,.78-1.27,2.63,0,3.41Z"/><path class="i" d="M354.03,582.45l-20.26-12.48c-1.52-.94-1.52-2.47,0-3.41l20.26-12.48c1.15-.71,3.04-.71,4.19,0l20.26,12.48c1.52,.94,1.52,2.47,0,3.41l-20.26,12.48c-1.15,.71-3.04,.71-4.19,0Z"/><path class="i" d="M547.52,701.6l-20.26-12.48c-1.52-.94-1.52-2.47,0-3.41l20.26-12.48c1.15-.71,3.04-.71,4.19,0l20.26,12.48c1.52,.94,1.52,2.47,0,3.41l-20.26,12.48c-1.15,.71-3.04,.71-4.19,0Z"/><path class="i" d="M676.52,781.03l-20.26-12.48c-1.52-.94-1.52-2.47,0-3.41l20.26-12.48c1.15-.71,3.04-.71,4.19,0l20.26,12.48c1.52,.94,1.52,2.47,0,3.41l-20.26,12.48c-1.15,.71-3.04,.71-4.19,0Z"/><path class="i" d="M387.4,603l-21.38-13.17c-1.52-.94-1.52-2.47,0-3.41l20.26-12.48c1.15-.71,3.04-.71,4.19,0l20.26,12.48c1.52,.94,1.52,2.47,0,3.41l-21.38,13.17c-.54,.33-1.42,.33-1.95,0Z"/><path class="i" d="M515.27,681.74l-20.26-12.48c-1.52-.94-1.52-2.47,0-3.41l20.26-12.48c1.15-.71,3.04-.71,4.19,0l20.26,12.48c1.52,.94,1.52,2.47,0,3.41l-20.26,12.48c-1.15,.71-3.04,.71-4.19,0Z"/><path class="i" d="M450.77,642.03l-20.26-12.48c-1.52-.94-1.52-2.47,0-3.41l20.26-12.48c1.15-.71,3.04-.71,4.19,0l20.26,12.48c1.52,.94,1.52,2.47,0,3.41l-20.26,12.48c-1.15,.71-3.04,.71-4.19,0Z"/><path class="i" d="M708.77,800.89l-20.26-12.48c-1.52-.94-1.52-2.47,0-3.41l20.26-12.48c1.15-.71,3.04-.71,4.19,0l20.26,12.48c1.52,.94,1.52,2.47,0,3.41l-20.26,12.48c-1.15,.71-3.04,.71-4.19,0Z"/><path class="i" d="M579.77,721.46l-20.26-12.48c-1.52-.94-1.52-2.47,0-3.41l20.26-12.48c1.15-.71,3.04-.71,4.19,0l20.26,12.48c1.52,.94,1.52,2.47,0,3.41l-20.26,12.48c-1.15,.71-3.04,.71-4.19,0Z"/><path class="i" d="M418.53,622.17l-20.26-12.48c-1.52-.94-1.52-2.47,0-3.41l20.26-12.48c1.15-.71,3.04-.71,4.19,0l20.26,12.48c1.52,.94,1.52,2.47,0,3.41l-20.26,12.48c-1.15,.71-3.04,.71-4.19,0Z"/><path class="i" d="M483.02,661.88l-20.26-12.48c-1.52-.94-1.52-2.47,0-3.41l20.26-12.48c1.15-.71,3.04-.71,4.19,0l20.26,12.48c1.52,.94,1.52,2.47,0,3.41l-20.26,12.48c-1.15,.71-3.04,.71-4.19,0Z"/><path class="i" d="M612.02,741.31l-20.26-12.48c-1.52-.94-1.52-2.47,0-3.41l20.26-12.48c1.15-.71,3.04-.71,4.19,0l20.26,12.48c1.52,.94,1.52,2.47,0,3.41l-20.26,12.48c-1.15,.71-3.04,.71-4.19,0Z"/><path class="i" d="M644.27,761.17l-20.26-12.48c-1.52-.94-1.52-2.47,0-3.41l20.26-12.48c1.15-.71,3.04-.71,4.19,0l20.26,12.48c1.52,.94,1.52,2.47,0,3.41l-20.26,12.48c-1.15,.71-3.04,.71-4.19,0Z"/><path class="i" d="M741.02,820.74l-20.26-12.48c-1.52-.94-1.52-2.47,0-3.41l20.26-12.48c1.15-.71,3.04-.71,4.19,0l20.26,12.48c1.52,.94,1.52,2.47,0,3.41l-20.26,12.48c-1.15,.71-3.04,.71-4.19,0Z"/><path class="i" d="M287.15,541.28l34.62,21.32c1.15,.71,3.04,.71,4.19,0l20.26-12.48c1.52-.94,1.52-2.47,0-3.41l-34.62-21.32c-1.29-.79-2.91-.79-4.19,0l-20.26,12.48c-1.27,.78-1.27,2.63,0,3.41Z"/><path class="i" d="M328.58,603.54l-17.5-10.77c-3.04-1.87-3.04-4.94,0-6.81l17.5-10.77c1.15-.71,3.04-.71,4.19,0l20.26,12.48c1.52,.94,1.52,2.47,0,3.41l-20.26,12.48c-1.15,.71-3.04,.71-4.19,0Z"/><path class="i" d="M623.66,785.24l-20.26-12.48c-1.52-.94-1.52-2.47,0-3.41l20.26-12.48c1.15-.71,3.04-.71,4.19,0l20.26,12.48c1.52,.94,1.52,2.47,0,3.41l-20.26,12.48c-1.15,.71-3.04,.71-4.19,0Z"/><path class="i" d="M590.87,765.05l-20.26-12.48c-1.52-.94-1.52-2.47,0-3.41l20.26-12.48c1.15-.71,3.04-.71,4.19,0l20.26,12.48c1.52,.94,1.52,2.47,0,3.41l-20.26,12.48c-1.15,.71-3.04,.71-4.19,0Z"/><path class="i" d="M361.36,623.73l-20.26-12.48c-1.52-.94-1.52-2.47,0-3.41l20.26-12.48c1.15-.71,3.04-.71,4.19,0l20.26,12.48c1.52,.94,1.52,2.47,0,3.41l-20.26,12.48c-1.15,.71-3.04,.71-4.19,0Z"/><path class="i" d="M394.15,643.92l-20.26-12.48c-1.52-.94-1.52-2.47,0-3.41l20.26-12.48c1.15-.71,3.04-.71,4.19,0l20.26,12.48c1.52,.94,1.52,2.47,0,3.41l-20.26,12.48c-1.15,.71-3.04,.71-4.19,0Z"/><path class="i" d="M492.51,704.49l-20.26-12.48c-1.52-.94-1.52-2.47,0-3.41l20.26-12.48c1.15-.71,3.04-.71,4.19,0l20.26,12.48c1.52,.94,1.52,2.47,0,3.41l-20.26,12.48c-1.15,.71-3.04,.71-4.19,0Z"/><path class="i" d="M426.94,664.11l-20.26-12.48c-1.52-.94-1.52-2.47,0-3.41l20.26-12.48c1.15-.71,3.04-.71,4.19,0l20.26,12.48c1.52,.94,1.52,2.47,0,3.41l-20.26,12.48c-1.15,.71-3.04,.71-4.19,0Z"/><path class="i" d="M656.44,805.43l-20.26-12.48c-1.52-.94-1.52-2.47,0-3.41l20.26-12.48c1.15-.71,3.04-.71,4.19,0l20.26,12.48c1.52,.94,1.52,2.47,0,3.41l-20.26,12.48c-1.15,.71-3.04,.71-4.19,0Z"/><path class="i" d="M525.3,724.67l-20.26-12.48c-1.52-.94-1.52-2.47,0-3.41l20.26-12.48c1.15-.71,3.04-.71,4.19,0l20.26,12.48c1.52,.94,1.52,2.47,0,3.41l-20.26,12.48c-1.15,.71-3.04,.71-4.19,0Z"/><path class="i" d="M558.08,744.86l-20.26-12.48c-1.52-.94-1.52-2.47,0-3.41l20.26-12.48c1.15-.71,3.04-.71,4.19,0l20.26,12.48c1.52,.94,1.52,2.47,0,3.41l-20.26,12.48c-1.15,.71-3.04,.71-4.19,0Z"/><path class="i" d="M459.72,684.3l-20.26-12.48c-1.52-.94-1.52-2.47,0-3.41l20.26-12.48c1.15-.71,3.04-.71,4.19,0l20.26,12.48c1.52,.94,1.52,2.47,0,3.41l-20.26,12.48c-1.15,.71-3.04,.71-4.19,0Z"/><path class="i" d="M712.29,839.82l-42.92-26.43c-1.52-.94-1.52-2.47,0-3.41l20.26-12.48c1.15-.71,3.04-.71,4.19,0l41.8,25.74c1.52,.94,1.52,2.47,0,3.41l-21.38,13.17c-.54,.33-1.42,.33-1.95,0Z"/><path class="i" d="M227.45,578.04l57.95,35.68c1.15,.71,3.04,.71,4.19,0l20.26-12.48c1.52-.94,1.52-2.47,0-3.41l-57.95-35.68c-1.29-.79-2.91-.79-4.19,0l-20.26,12.48c-1.27,.78-1.27,2.63,0,3.41Z"/><path class="i" d="M681.32,857.51l-59.75-36.79c-1.52-.94-1.52-2.47,0-3.41l20.26-12.48c1.15-.71,3.04-.71,4.19,0l59.75,36.79c1.52,.94,1.52,2.47,0,3.41l-20.26,12.48c-1.15,.71-3.04,.71-4.19,0Z"/><path class="i" d="M317.91,633.73l-22.05-13.58c-.54-.33-.54-.87,0-1.2l22.05-13.58c1.15-.71,3.04-.71,4.19,0l20.26,12.48c1.52,.94,1.52,2.47,0,3.41l-20.26,12.48c-1.15,.71-3.04,.71-4.19,0Z"/><path class="i" d="M480.41,733.8l-20.26-12.48c-1.52-.94-1.52-2.47,0-3.41l20.26-12.48c1.15-.71,3.04-.71,4.19,0l20.26,12.48c1.52,.94,1.52,2.47,0,3.41l-20.26,12.48c-1.15,.71-3.04,.71-4.19,0Z"/><path class="i" d="M512.91,753.81l-20.26-12.48c-1.52-.94-1.52-2.47,0-3.41l20.26-12.48c1.15-.71,3.04-.71,4.19,0l20.26,12.48c1.52,.94,1.52,2.47,0,3.41l-20.26,12.48c-1.15,.71-3.04,.71-4.19,0Z"/><path class="i" d="M611.54,814.53l-21.38-13.17c-1.52-.94-1.52-2.47,0-3.41l20.26-12.48c1.15-.71,3.04-.71,4.19,0l20.26,12.48c1.52,.94,1.52,2.47,0,3.41l-21.38,13.17c-.54,.33-1.42,.33-1.95,0Z"/><path class="i" d="M447.91,713.78l-20.26-12.48c-1.52-.94-1.52-2.47,0-3.41l20.26-12.48c1.15-.71,3.04-.71,4.19,0l20.26,12.48c1.52,.94,1.52,2.47,0,3.41l-20.26,12.48c-1.15,.71-3.04,.71-4.19,0Z"/><path class="i" d="M415.41,693.77l-20.26-12.48c-1.52-.94-1.52-2.47,0-3.41l20.26-12.48c1.15-.71,3.04-.71,4.19,0l20.26,12.48c1.52,.94,1.52,2.47,0,3.41l-20.26,12.48c-1.15,.71-3.04,.71-4.19,0Z"/><path class="i" d="M382.91,673.76l-20.26-12.48c-1.52-.94-1.52-2.47,0-3.41l20.26-12.48c1.15-.71,3.04-.71,4.19,0l20.26,12.48c1.52,.94,1.52,2.47,0,3.41l-20.26,12.48c-1.15,.71-3.04,.71-4.19,0Z"/><path class="i" d="M350.41,653.75l-20.26-12.48c-1.52-.94-1.52-2.47,0-3.41l20.26-12.48c1.15-.71,3.04-.71,4.19,0l20.26,12.48c1.52,.94,1.52,2.47,0,3.41l-20.26,12.48c-1.15,.71-3.04,.71-4.19,0Z"/><path class="i" d="M545.41,773.82l-20.26-12.48c-1.52-.94-1.52-2.47,0-3.41l20.26-12.48c1.15-.71,3.04-.71,4.19,0l20.26,12.48c1.52,.94,1.52,2.47,0,3.41l-20.26,12.48c-1.15,.71-3.04,.71-4.19,0Z"/><path class="i" d="M577.91,793.83l-20.26-12.48c-1.52-.94-1.52-2.47,0-3.41l20.26-12.48c1.15-.71,3.04-.71,4.19,0l20.26,12.48c1.52,.94,1.52,2.47,0,3.41l-20.26,12.48c-1.15,.71-3.04,.71-4.19,0Z"/><path class="i" d="M321.47,671.56l-27.44-16.9c-1.52-.94-1.52-2.47,0-3.41l20.26-12.48c1.15-.71,3.04-.71,4.19,0l27.44,16.9c1.52,.94,1.52,2.47,0,3.41l-20.26,12.48c-1.15,.71-3.04,.71-4.19,0Z"/><path class="i" d="M281.86,647.17l-20.26-12.48c-1.52-.94-1.52-2.47,0-3.41l20.26-12.48c1.15-.71,3.04-.71,4.19,0l20.26,12.48c1.52,.94,1.52,2.47,0,3.41l-20.26,12.48c-1.15,.71-3.04,.71-4.19,0Z"/><path class="i" d="M249.42,627.2l-20.26-12.48c-1.52-.94-1.52-2.47,0-3.41l20.26-12.48c1.15-.71,3.04-.71,4.19,0l20.26,12.48c1.52,.94,1.52,2.47,0,3.41l-20.26,12.48c-1.15,.71-3.04,.71-4.19,0Z"/><path class="i" d="M198.52,595.85l18.47,11.37c1.15,.71,3.04,.71,4.19,0l20.26-12.48c1.52-.94,1.52-2.47,0-3.41l-18.47-11.37c-1.29-.79-2.91-.79-4.19,0l-20.26,12.48c-1.27,.78-1.27,2.63,0,3.41Z"/><path class="i" d="M484.28,771.44l-150.27-92.53c-1.52-.94-1.52-2.47,0-3.41l20.26-12.48c1.15-.71,3.04-.71,4.19,0l150.27,92.53c1.52,.94,1.52,2.47,0,3.41l-20.26,12.48c-1.15,.71-3.04,.71-4.19,0Z"/><path class="i" d="M523.96,795.87l-27.44-16.9c-1.52-.94-1.52-2.47,0-3.41l20.26-12.48c1.15-.71,3.04-.71,4.19,0l27.44,16.9c1.52,.94,1.52,2.47,0,3.41l-20.26,12.48c-1.15,.71-3.04,.71-4.19,0Z"/><path class="i" d="M556.14,815.69l-20.26-12.48c-1.52-.94-1.52-2.47,0-3.41l20.26-12.48c1.15-.71,3.04-.71,4.19,0l20.26,12.48c1.52,.94,1.52,2.47,0,3.41l-20.26,12.48c-1.15,.71-3.04,.71-4.19,0Z"/><path class="i" d="M588.32,835.5l-20.26-12.48c-1.52-.94-1.52-2.47,0-3.41l7.7-4.74c1.15-.71,3.04-.71,4.19,0l20.26,12.48c1.52,.94,1.52,2.47,0,3.41l-7.7,4.74c-1.15,.71-3.04,.71-4.19,0Z"/><path class="i" d="M620.51,855.32l-20.26-12.48c-1.52-.94-1.52-2.47,0-3.41l7.7-4.74c1.15-.71,3.04-.71,4.19,0l20.26,12.48c1.52,.94,1.52,2.47,0,3.41l-7.7,4.74c-1.15,.71-3.04,.71-4.19,0Z"/><path class="i" d="M652.69,875.14l-20.26-12.48c-1.52-.94-1.52-2.47,0-3.41l7.7-4.74c1.15-.71,3.04-.71,4.19,0l20.26,12.48c1.52,.94,1.52,2.47,0,3.41l-7.7,4.74c-1.15,.71-3.04,.71-4.19,0Z"/><path class="i" d="M635.87,847.15l-21.31-13.12c-1.52-.94-1.52-2.47,0-3.41l7.7-4.74c1.15-.71,3.04-.71,4.19,0l17.5,10.77c3.04,1.87,3.04,4.94,0,6.81l-5.98,3.68c-.58,.36-1.52,.36-2.1,0Z"/><path class="l" d="M191.43,591.6l172.05-105.5c2.58-1.58,5.83-1.57,8.4,.02l455.67,282.63c2.53,1.57,2.52,5.24,0,6.8l-169.39,104.4c-2.57,1.58-5.81,1.59-8.38,0L191.43,598.42c-2.54-1.56-2.54-5.26,0-6.82Z"/><polygon class="k" points="421.49 40.14 971.76 390.31 919.46 764.53 363.67 414.1 421.49 40.14"/><polygon class="o" points="715.03 556.41 527.37 433.69 554.16 257.06 741.82 379.78 715.03 556.41"/><polyline class="n" points="554.16 257.06 634.6 406.73 741.82 379.78"/></svg>